Results
version=1
nRows=4
nColumns=213
inDegrees=yes
endheader
time	platform_rx	platform_ry	platform_rz	platform_ty	pelvis_tilt	pelvis_list	pelvis_rotation	pelvis_tx	pelvis_ty	pelvis_tz	hip_flexion_r	hip_adduction_r	hip_rotation_r	knee_angle_r	knee_angle_r_beta	ankle_angle_r	subtalar_angle_r	mtp_angle_r	hip_flexion_l	hip_adduction_l	hip_rotation_l	knee_angle_l	knee_angle_l_beta	ankle_angle_l	subtalar_angle_l	mtp_angle_l	lumbar_extension	lumbar_bending	lumbar_rotation	arm_flex_r	arm_add_r	arm_rot_r	elbow_flex_r	pro_sup_r	wrist_flex_r	wrist_dev_r	arm_flex_l	arm_add_l	arm_rot_l	elbow_flex_l	pro_sup_l	wrist_flex_l	wrist_dev_l	platform_rx_u	platform_ry_u	platform_rz_u	platform_ty_u	pelvis_tilt_u	pelvis_list_u	pelvis_rotation_u	pelvis_tx_u	pelvis_ty_u	pelvis_tz_u	hip_flexion_r_u	hip_adduction_r_u	hip_rotation_r_u	knee_angle_r_u	knee_angle_r_beta_u	ankle_angle_r_u	subtalar_angle_r_u	mtp_angle_r_u	hip_flexion_l_u	hip_adduction_l_u	hip_rotation_l_u	knee_angle_l_u	knee_angle_l_beta_u	ankle_angle_l_u	subtalar_angle_l_u	mtp_angle_l_u	lumbar_extension_u	lumbar_bending_u	lumbar_rotation_u	arm_flex_r_u	arm_add_r_u	arm_rot_r_u	elbow_flex_r_u	pro_sup_r_u	wrist_flex_r_u	wrist_dev_r_u	arm_flex_l_u	arm_add_l_u	arm_rot_l_u	elbow_flex_l_u	pro_sup_l_u	wrist_flex_l_u	wrist_dev_l_u	addbrev_r.activation	addlong_r.activation	addlong_r.fiber_length	addmagDist_r.activation	addmagIsch_r.activation	addmagIsch_r.fiber_length	addmagMid_r.activation	addmagProx_r.activation	bflh_r.activation	bflh_r.fiber_length	bfsh_r.activation	edl_r.activation	edl_r.fiber_length	ehl_r.activation	ehl_r.fiber_length	fdl_r.activation	fdl_r.fiber_length	fhl_r.activation	fhl_r.fiber_length	gaslat_r.activation	gaslat_r.fiber_length	gasmed_r.activation	gasmed_r.fiber_length	glmax1_r.activation	glmax2_r.activation	glmax3_r.activation	glmed1_r.activation	glmed2_r.activation	glmed3_r.activation	glmin1_r.activation	glmin2_r.activation	glmin3_r.activation	glmin3_r.fiber_length	grac_r.activation	iliacus_r.activation	perbrev_r.activation	perbrev_r.fiber_length	perlong_r.activation	perlong_r.fiber_length	piri_r.activation	piri_r.fiber_length	psoas_r.activation	recfem_r.activation	recfem_r.fiber_length	sart_r.activation	semimem_r.activation	semimem_r.fiber_length	semiten_r.activation	semiten_r.fiber_length	soleus_r.activation	soleus_r.fiber_length	tfl_r.activation	tfl_r.fiber_length	tibant_r.activation	tibant_r.fiber_length	tibpost_r.activation	tibpost_r.fiber_length	vasint_r.activation	vasint_r.fiber_length	vaslat_r.activation	vaslat_r.fiber_length	vasmed_r.activation	vasmed_r.fiber_length	addbrev_l.activation	addlong_l.activation	addlong_l.fiber_length	addmagDist_l.activation	addmagIsch_l.activation	addmagIsch_l.fiber_length	addmagMid_l.activation	addmagProx_l.activation	bflh_l.activation	bflh_l.fiber_length	bfsh_l.activation	edl_l.activation	edl_l.fiber_length	ehl_l.activation	ehl_l.fiber_length	fdl_l.activation	fdl_l.fiber_length	fhl_l.activation	fhl_l.fiber_length	gaslat_l.activation	gaslat_l.fiber_length	gasmed_l.activation	gasmed_l.fiber_length	glmax1_l.activation	glmax2_l.activation	glmax3_l.activation	glmed1_l.activation	glmed2_l.activation	glmed3_l.activation	glmin1_l.activation	glmin2_l.activation	glmin3_l.activation	glmin3_l.fiber_length	grac_l.activation	iliacus_l.activation	perbrev_l.activation	perbrev_l.fiber_length	perlong_l.activation	perlong_l.fiber_length	piri_l.activation	piri_l.fiber_length	psoas_l.activation	recfem_l.activation	recfem_l.fiber_length	sart_l.activation	semimem_l.activation	semimem_l.fiber_length	semiten_l.activation	semiten_l.fiber_length	soleus_l.activation	soleus_l.fiber_length	tfl_l.activation	tfl_l.fiber_length	tibant_l.activation	tibant_l.fiber_length	tibpost_l.activation	tibpost_l.fiber_length	vasint_l.activation	vasint_l.fiber_length	vaslat_l.activation	vaslat_l.fiber_length	vasmed_l.activation	vasmed_l.fiber_length
      0.00332403	     20.00000000	      0.00000000	     -0.00000000	      0.25000000	    -20.85946883	     -0.00104074	     -0.00116227	      0.03702886	      0.75619323	      0.00000408	     65.30380943	    -16.17016210	    -10.00919872	     70.20060195	     70.20060195	     23.21396248	     -0.16982859	      0.00000000	     65.30376420	    -16.17662853	    -10.00258270	     70.20137041	     70.20137041	     23.25122836	      0.00000000	      0.00000000	     -0.15871378	      0.00097395	      0.00115968	     69.03098742	     -0.00130585	     89.85557736	      0.12497758	      0.12066336	     -0.00000000	     -0.00000000	     69.03104396	     -0.00143252	     89.85573213	      0.12507446	      0.12069028	     -0.00000000	      0.00000000	      0.00000000	      0.00000000	      0.00000000	      0.00000000	     77.11830759	     -0.59680095	     -0.66237855	      0.01754185	      0.11597921	      0.00234656	    -91.06602091	     -2.50043407	     -5.60214485	    -24.38515335	    -24.38515335	   -497.71153697	    -98.61561185	      0.00000000	    -91.08928490	     -6.22102738	     -1.79698943	    -23.94052510	    -23.94052510	   -476.25395067	      0.00000000	      0.00000000	    -95.19223353	      0.55468886	      0.66244175	     18.55658839	     -0.76954497	     -0.42320587	      2.22202436	     -0.34604435	     -0.00000000	      0.00000000	     18.59076641	     -0.84725193	     -0.35900391	      2.28044970	     -0.32981109	     -0.00000000	      0.00000000	      0.01000000	      0.01000000	      0.09547802	      0.01000000	      0.01000000	      0.19664162	      0.01000000	      0.01000000	      0.01000000	      0.11588144	      0.01000000	      0.01000000	      0.05454793	      0.01000000	      0.06237632	      0.01000000	      0.04740245	      0.01000000	      0.05566533	      0.01000000	      0.06118707	      0.01000000	      0.05186674	      0.01000000	      0.01000000	      0.01000000	      0.01000000	      0.01000000	      0.01000000	      0.01000000	      0.01000000	      0.01000000	      0.04413257	      0.01000000	      0.01000000	      0.01000000	      0.05041879	      0.01000000	      0.05694240	      0.01000000	      0.02880770	      0.01000000	      0.01000000	      0.06164301	      0.01000000	      0.01000000	      0.07647315	      0.01000000	      0.22638416	      0.01000000	      0.05937586	      0.01000000	      0.04766609	      0.01000000	      0.04887466	      0.01000000	      0.04170877	      0.01000000	      0.12664131	      0.01000000	      0.12409187	      0.01000000	      0.12200361	      0.01000000	      0.01000000	      0.09548338	      0.01000000	      0.01000000	      0.19664361	      0.01000000	      0.01000000	      0.01000000	      0.11588183	      0.01000000	      0.01000000	      0.05455972	      0.01000000	      0.06236499	      0.01000000	      0.04739579	      0.01000000	      0.05565870	      0.01000000	      0.06118941	      0.01000000	      0.05187042	      0.01000000	      0.01000000	      0.01000000	      0.01000000	      0.01000000	      0.01000000	      0.01000000	      0.01000000	      0.01000000	      0.04412806	      0.01000000	      0.01000000	      0.01000000	      0.05046061	      0.01000000	      0.05696556	      0.01000000	      0.02880603	      0.01000000	      0.01000000	      0.06164277	      0.01000000	      0.01000000	      0.07647321	      0.01000000	      0.22638493	      0.01000000	      0.05937990	      0.01000000	      0.04766145	      0.01000000	      0.04883532	      0.01000000	      0.04170075	      0.01000000	      0.12664157	      0.01000000	      0.12409209	      0.01000000	      0.12200384
      0.00433822	     20.00000000	      0.00000000	      0.00000000	      0.25000000	    -20.76945221	     -0.00172142	     -0.00191492	      0.03704946	      0.75632864	      0.00000676	     65.19728022	    -16.17307593	    -10.01579153	     70.17161142	     70.17161142	     22.63893321	     -0.28297512	      0.00000000	     65.19721080	    -16.18379164	    -10.00481571	     70.17288837	     70.17288837	     22.70072031	      0.00000000	      0.00000000	     -0.26980095	      0.00160405	      0.00191366	     69.05261732	     -0.00220256	     89.85508474	      0.12756688	      0.12025718	     -0.00000000	     -0.00000000	     69.05271377	     -0.00241994	     89.85531447	      0.12773197	      0.12030305	     -0.00000000	      0.00000000	      0.00000000	      0.00000000	      0.00000000	      0.00000000	    100.37368049	     -0.74284543	     -0.81850124	      0.02310839	      0.15104796	      0.00292926	   -119.02858800	     -3.24268404	     -7.41144513	    -32.88680311	    -32.88680311	   -635.04520936	   -124.16971786	      0.00000000	   -119.05273385	     -7.88603173	     -2.63369994	    -32.33104700	    -32.33104700	   -608.23053583	      0.00000000	      0.00000000	   -123.84079739	      0.68492563	      0.82135921	     24.08753303	     -0.99835448	     -0.54805727	      2.88288814	     -0.45451095	      0.00000000	     -0.00000000	     24.13202568	     -1.09946933	     -0.46447247	      2.95893197	     -0.43338492	     -0.00000000	     -0.00000000	      0.01000000	      0.01000000	      0.09549493	      0.01000000	      0.01000000	      0.19655776	      0.01000000	      0.01000000	      0.01000000	      0.11583138	      0.01000000	      0.01000000	      0.05482252	      0.01000000	      0.06271125	      0.01000000	      0.04739919	      0.01000000	      0.05564055	      0.01000000	      0.06101517	      0.01000000	      0.05173747	      0.01000000	      0.01000000	      0.01000000	      0.01000000	      0.01000000	      0.01000000	      0.01000000	      0.01000000	      0.01000000	      0.04411187	      0.01000000	      0.01000000	      0.01000000	      0.05034997	      0.01000000	      0.05688452	      0.01000000	      0.02879067	      0.01000000	      0.01000000	      0.06167609	      0.01000000	      0.01000000	      0.07644155	      0.01000000	      0.22631629	      0.01000000	      0.05919247	      0.01000000	      0.04774560	      0.01000000	      0.04926921	      0.01000000	      0.04169960	      0.01000000	      0.12662992	      0.01000000	      0.12408194	      0.01000000	      0.12199358	      0.01000000	      0.01000000	      0.09550496	      0.01000000	      0.01000000	      0.19656132	      0.01000000	      0.01000000	      0.01000000	      0.11583217	      0.01000000	      0.01000000	      0.05484466	      0.01000000	      0.06269035	      0.01000000	      0.04738524	      0.01000000	      0.05562577	      0.01000000	      0.06101991	      0.01000000	      0.05174442	      0.01000000	      0.01000000	      0.01000000	      0.01000000	      0.01000000	      0.01000000	      0.01000000	      0.01000000	      0.01000000	      0.04410362	      0.01000000	      0.01000000	      0.01000000	      0.05043671	      0.01000000	      0.05693735	      0.01000000	      0.02878705	      0.01000000	      0.01000000	      0.06167548	      0.01000000	      0.01000000	      0.07644170	      0.01000000	      0.22631769	      0.01000000	      0.05919977	      0.01000000	      0.04773563	      0.01000000	      0.04919958	      0.01000000	      0.04168239	      0.01000000	      0.12663038	      0.01000000	      0.12408235	      0.01000000	      0.12199399
      0.00535241	     20.00000000	      0.00000000	      0.00000000	      0.25000000	    -20.65591881	     -0.00254228	     -0.00281606	      0.03707575	      0.75649957	      0.00001000	     65.06234026	    -16.17673278	    -10.02426026	     70.13368434	     70.13368434	     21.92832974	     -0.42102679	      0.00000000	     65.06224621	    -16.19258717	    -10.00798258	     70.13557465	     70.13557465	     22.01982909	      0.00000000	      0.00000000	     -0.40984197	      0.00235733	      0.00281991	     69.07982524	     -0.00333010	     89.85446582	      0.13082289	      0.11974337	     -0.00000000	     -0.00000000	     69.07997199	     -0.00366177	     89.85479005	      0.13107394	      0.11981312	     -0.00000000	      0.00000000	      0.00000000	      0.00000000	     -0.00000000	      0.00000000	    123.49502244	     -0.87354454	     -0.95569154	      0.02874936	      0.18599061	      0.00345563	   -147.09251939	     -3.96511242	     -9.30447073	    -42.01037440	    -42.01037440	   -765.10014986	   -147.77155404	      0.00000000	   -147.11702127	     -9.44172653	     -3.64052226	    -41.35936564	    -41.35936564	   -733.38923122	      0.00000000	      0.00000000	   -152.29071965	      0.79783262	      0.96326099	     29.55751373	     -1.22486004	     -0.67257026	      3.53709239	     -0.55725265	      0.00000000	     -0.00000000	     29.61220023	     -1.34907468	     -0.56982375	      3.63053775	     -0.53129623	     -0.00000000	     -0.00000000	      0.01000000	      0.01000000	      0.09551785	      0.01000000	      0.01000000	      0.19644795	      0.01000000	      0.01000000	      0.01000000	      0.11576106	      0.01000000	      0.01000000	      0.05518181	      0.01000000	      0.06314281	      0.01000000	      0.04739412	      0.01000000	      0.05560225	      0.01000000	      0.06078070	      0.01000000	      0.05157510	      0.01000000	      0.01000000	      0.01000000	      0.01000000	      0.01000000	      0.01000000	      0.01000000	      0.01000000	      0.01000000	      0.04408441	      0.01000000	      0.01000000	      0.01000000	      0.05025648	      0.01000000	      0.05679623	      0.01000000	      0.02876500	      0.01000000	      0.01000000	      0.06173218	      0.01000000	      0.01000000	      0.07639461	      0.01000000	      0.22622774	      0.01000000	      0.05895468	      0.01000000	      0.04786057	      0.01000000	      0.04977072	      0.01000000	      0.04168580	      0.01000000	      0.12661446	      0.01000000	      0.12406837	      0.01000000	      0.12197996	      0.01000000	      0.01000000	      0.09553399	      0.01000000	      0.01000000	      0.19645345	      0.01000000	      0.01000000	      0.01000000	      0.11576241	      0.01000000	      0.01000000	      0.05521708	      0.01000000	      0.06310949	      0.01000000	      0.04736922	      0.01000000	      0.05557402	      0.01000000	      0.06078783	      0.01000000	      0.05158347	      0.01000000	      0.01000000	      0.01000000	      0.01000000	      0.01000000	      0.01000000	      0.01000000	      0.01000000	      0.01000000	      0.04407141	      0.01000000	      0.01000000	      0.01000000	      0.05040263	      0.01000000	      0.05689423	      0.01000000	      0.02875850	      0.01000000	      0.01000000	      0.06173095	      0.01000000	      0.01000000	      0.07639487	      0.01000000	      0.22622994	      0.01000000	      0.05896618	      0.01000000	      0.04784386	      0.01000000	      0.04966334	      0.01000000	      0.04165383	      0.01000000	      0.12661518	      0.01000000	      0.12406900	      0.01000000	      0.12198060
      0.00660570	     20.00000000	      0.00000000	      0.00000000	      0.25000000	    -20.48332527	     -0.00372885	     -0.00410789	      0.03711620	      0.75675965	      0.00001470	     64.85617986	    -16.18224586	    -10.03745848	     70.07352241	     70.07352241	     20.87381162	     -0.62325107	      0.00000000	     64.85605564	    -16.20555304	    -10.01345274	     70.07629137	     70.07629137	     21.00854370	      0.00000000	      0.00000000	     -0.62260474	      0.00343367	      0.00412640	     69.12106648	     -0.00503944	     89.85352555	      0.13575914	      0.11897379	     -0.00000000	     -0.00000000	     69.12128957	     -0.00554444	     89.85399322	      0.13614061	      0.11907976	     -0.00000000	      0.00000000	      0.00000000	      0.00000000	      0.00000000	      0.00000000	    151.90127901	     -1.01693205	     -1.10159282	      0.03580099	      0.22902720	      0.00403678	   -181.93019697	     -4.82656431	    -11.78549932	    -54.15965634	    -54.15965634	   -915.87861170	   -174.50154895	      0.00000000	   -181.95311893	    -11.22413338	     -5.13677678	    -53.41210434	    -53.41210434	   -878.71027894	      0.00000000	      0.00000000	   -187.19079845	      0.91614697	      1.11797821	     36.24229809	     -1.50260092	     -0.82847561	      4.33926409	     -0.66692336	     -0.00000000	     -0.00000000	     36.30938732	     -1.65486276	     -0.70240489	      4.45386388	     -0.63509929	     -0.00000000	     -0.00000000	      0.01000000	      0.01000000	      0.09555483	      0.01000000	      0.01000000	      0.19627659	      0.01000000	      0.01000000	      0.01000000	      0.11564582	      0.01000000	      0.01000000	      0.05573327	      0.01000000	      0.06380061	      0.01000000	      0.04738477	      0.01000000	      0.05553232	      0.01000000	      0.06045694	      0.01000000	      0.05137156	      0.01000000	      0.01000000	      0.01000000	      0.01000000	      0.01000000	      0.01000000	      0.01000000	      0.01000000	      0.01000000	      0.04404125	      0.01000000	      0.01000000	      0.01000000	      0.05011112	      0.01000000	      0.05664711	      0.01000000	      0.02872057	      0.01000000	      0.01000000	      0.06183482	      0.01000000	      0.01000000	      0.07631294	      0.01000000	      0.22609034	      0.01000000	      0.05858786	      0.01000000	      0.04804754	      0.01000000	      0.05052970	      0.01000000	      0.04166106	      0.01000000	      0.12658927	      0.01000000	      0.12404613	      0.01000000	      0.12195777	      0.01000000	      0.01000000	      0.09558018	      0.01000000	      0.01000000	      0.19628507	      0.01000000	      0.01000000	      0.01000000	      0.11564805	      0.01000000	      0.01000000	      0.05578853	      0.01000000	      0.06374779	      0.01000000	      0.04734017	      0.01000000	      0.05547997	      0.01000000	      0.06046475	      0.01000000	      0.05137984	      0.01000000	      0.01000000	      0.01000000	      0.01000000	      0.01000000	      0.01000000	      0.01000000	      0.01000000	      0.01000000	      0.04402127	      0.01000000	      0.01000000	      0.01000000	      0.05034603	      0.01000000	      0.05681770	      0.01000000	      0.02870959	      0.01000000	      0.01000000	      0.06183264	      0.01000000	      0.01000000	      0.07631341	      0.01000000	      0.22609375	      0.01000000	      0.05860582	      0.01000000	      0.04802095	      0.01000000	      0.05036582	      0.01000000	      0.04160136	      0.01000000	      0.12659038	      0.01000000	      0.12404711	      0.01000000	      0.12195875
